<svg width="237" height="46" fill="none" xmlns="http://www.w3.org/2000/svg"><path fill-rule="evenodd" clip-rule="evenodd" d="M103.824 1.821h132.577v29.375H103.824V1.82z" fill="#2B2A29"/><path fill-rule="evenodd" clip-rule="evenodd" d="M36.576 8.572a3.146 3.146 0 0 1 3.15 3.138 3.145 3.145 0 0 1-3.15 3.146 3.145 3.145 0 0 1-3.147-3.146 3.146 3.146 0 0 1 3.147-3.138zm8.813 19.252h-5.764v-6.778a2.567 2.567 0 0 0 0-.437v-.012a3.147 3.147 0 0 0-6.277 0v.004a2.864 2.864 0 0 0 0 .45v6.773h-5.764V19.19a3.147 3.147 0 0 0 0-6.031V5.192H45.39v22.632zM13.026 8.934c1.683 0 3.368.025 5.056.025V23.72h-4.734a4.293 4.293 0 0 1-.322.014c-4.085 0-7.403-3.313-7.403-7.398a7.408 7.408 0 0 1 7.403-7.403zm8.794-3.708H1.293v18.53H.401v4.038h22.29v-4.038h-.87V5.226zm81.903 22.598H89.129v-6.778a3.14 3.14 0 0 0 0-.436v-.012h-.001a3.146 3.146 0 0 0-3.138-2.914 3.145 3.145 0 0 0-3.139 2.914v.004a3.193 3.193 0 0 0 0 .452v6.77h-5.763v-8.64a3.146 3.146 0 0 0 0-6.026V5.194h26.635v22.631zM86.078 8.57a3.146 3.146 0 0 1 3.147 3.144 3.146 3.146 0 0 1-3.147 3.144 3.146 3.146 0 0 1-3.147-3.144 3.146 3.146 0 0 1 3.147-3.144zm-23.25.364c1.683 0 3.37.025 5.057.025V23.72h-4.734c-.11.008-.214.014-.324.014-4.084 0-7.404-3.313-7.404-7.398a7.41 7.41 0 0 1 7.404-7.403zm8.79-3.708H51.094v18.53h-.89v4.038h22.29v-4.038h-.876V5.226z" fill="#E31E24"/><path d="M.706 45.903l1.81-5.738h.67l1.927 5.738h-.712l-.548-1.738H1.886l-.518 1.738H.706zm1.36-2.357H3.66l-.49-1.588a17.753 17.753 0 0 1-.332-1.19c-.06.368-.145.733-.256 1.097l-.516 1.681zm10.722 2.357v-5.06h-1.55v-.678h3.732v.678h-1.559v5.06h-.623zm8.797 0v-5.738h3.404v.678h-2.782v1.756h2.605v.673h-2.605v1.953h2.892v.678h-3.514zm10.687-5.738h2.95v5.738h-.628v-5.06h-1.699v2.954c0 .587-.024 1.022-.07 1.305-.045.284-.143.504-.292.661a.738.738 0 0 1-.555.237c-.143 0-.31-.032-.502-.097l.106-.67a.61.61 0 0 0 .262.08.348.348 0 0 0 .318-.19c.072-.125.11-.43.11-.918v-4.04zm9.968 0h.621v2.45h1.125c.413 0 .742.048.987.144.246.098.443.279.592.543.148.264.223.575.223.934 0 .44-.123.829-.37 1.164-.247.336-.71.503-1.39.503H42.24v-5.738zm.621 5.093h1.141c.386 0 .669-.08.848-.238.179-.158.269-.42.269-.785 0-.24-.054-.438-.16-.593a.724.724 0 0 0-.405-.303c-.164-.047-.45-.07-.858-.07h-.835v1.989zm9.66.645v-5.738h3.404v.678h-2.783v1.756h2.606v.673h-2.606v1.953h2.892v.678H52.52zm15.81 0v-5.738h1.767c.357 0 .64.056.85.167.21.111.379.283.513.519.133.235.2.494.2.778 0 .263-.058.501-.172.712a1.333 1.333 0 0 1-.487.51c.274.098.49.268.649.505.157.24.236.534.236.883 0 .348-.07.652-.212.914a1.33 1.33 0 0 1-.57.572c-.238.119-.564.178-.98.178h-1.794zm.623-3.326h1.018c.267 0 .456-.02.569-.055a.704.704 0 0 0 .373-.277c.088-.128.132-.304.132-.526 0-.206-.04-.378-.12-.514a.633.633 0 0 0-.317-.285c-.132-.052-.37-.077-.712-.077h-.943v1.734zm0 2.648h1.171c.258 0 .45-.023.572-.07a.776.776 0 0 0 .405-.334c.093-.156.14-.35.14-.585 0-.217-.045-.4-.134-.55a.795.795 0 0 0-.359-.33c-.15-.069-.385-.102-.706-.102h-1.09v1.971zm13.1-1.334l.627.192c-.139.644-.38 1.125-.727 1.442-.346.318-.767.475-1.264.475-.435 0-.808-.105-1.118-.32-.31-.212-.562-.552-.759-1.023-.198-.468-.297-1.023-.297-1.662 0-.63.1-1.165.297-1.602.197-.438.464-.768.801-.991a1.996 1.996 0 0 1 1.127-.334c.455 0 .845.141 1.171.425.328.283.555.698.686 1.246l-.61.176c-.21-.799-.63-1.198-1.258-1.198-.314 0-.585.08-.815.24-.23.16-.413.41-.55.75-.138.339-.206.769-.206 1.288 0 .785.138 1.374.415 1.767.277.393.646.589 1.106.589.338 0 .632-.12.878-.362.247-.242.412-.608.496-1.098zm8.585 2.012v-5.06h-1.552v-.678h3.733v.678h-1.559v5.06h-.622zm8.784 0v-5.738h1.774c.419 0 .726.036.924.11.273.099.49.283.652.552.161.268.241.598.241.99 0 .516-.131.938-.395 1.264-.264.326-.72.49-1.367.49h-1.206v2.332h-.623zm.623-3.01h1.218c.384 0 .665-.087.843-.26.177-.174.265-.435.265-.785a1.23 1.23 0 0 0-.13-.584.749.749 0 0 0-.319-.332c-.123-.06-.347-.09-.671-.09h-1.206v2.051zm9.559.215c0-.978.215-1.73.646-2.256.432-.525.968-.788 1.611-.788.414 0 .793.117 1.135.352.342.234.614.576.813 1.024.199.447.299.98.299 1.598 0 .85-.192 1.543-.578 2.078-.427.59-.985.884-1.673.884-.696 0-1.255-.302-1.677-.907-.384-.55-.576-1.21-.576-1.985zm.643.012c0 .707.155 1.256.468 1.646.311.39.691.585 1.138.585.456 0 .84-.198 1.15-.59.309-.395.463-.975.463-1.738 0-.493-.079-.934-.239-1.323a1.62 1.62 0 0 0-.555-.714 1.344 1.344 0 0 0-.809-.27c-.469 0-.857.197-1.16.589-.305.391-.456.996-.456 1.815zm10.637 2.783v-5.738h3.404v.678h-2.782v1.756h2.605v.673h-2.605v1.953h2.891v.678h-3.513zm10.342 0v-5.738h.623v2.357h2.448v-2.357h.623v5.738h-.623v-2.704h-2.448v2.704h-.623zm10.719 0v-5.738h.623v2.357h2.449v-2.357h.623v5.738h-.623v-2.704h-2.449v2.704h-.623zm10.547-2.795c0-.978.216-1.73.646-2.256.432-.525.968-.788 1.611-.788.415 0 .793.117 1.135.352.343.234.614.576.813 1.024.2.447.3.98.3 1.598 0 .85-.193 1.543-.579 2.078-.427.59-.984.884-1.673.884-.695 0-1.254-.302-1.676-.907-.384-.55-.577-1.21-.577-1.985zm.643.012c0 .707.155 1.256.468 1.646.312.39.692.585 1.138.585.456 0 .84-.198 1.15-.59.309-.395.464-.975.464-1.738 0-.493-.08-.934-.239-1.323a1.627 1.627 0 0 0-.555-.714 1.344 1.344 0 0 0-.809-.27c-.469 0-.857.197-1.161.589-.304.391-.456.996-.456 1.815zm10.633-2.955h.564v4.543l2.507-4.543h.626v5.738h-.564V41.37l-2.51 4.533h-.623v-5.738zm2.495-1.4h.396c-.034.336-.135.588-.305.758a.877.877 0 0 1-.647.255.872.872 0 0 1-.645-.255c-.168-.17-.268-.422-.303-.759h.395c.061.353.24.528.538.528.167 0 .296-.042.388-.124.091-.085.152-.218.183-.404zm13.664 7.138v-5.738h.936l1.117 4.063.222.849c.056-.21.14-.518.252-.92l1.129-3.992h.838v5.738h-.6V41.1l-1.371 4.803h-.56l-1.364-4.884v4.884h-.599zm11.484 0v-5.738h3.404v.678h-2.782v1.756h2.606v.673h-2.606v1.953h2.892v.678h-3.514zm10.373-5.738h3.057v.678h-2.434v1.768h1.125c.418 0 .748.048.99.146.244.096.439.278.589.543.148.266.223.578.223.936 0 .336-.069.64-.209.914-.138.276-.318.47-.54.583-.222.113-.541.17-.96.17h-1.841v-5.738zm.623 5.093h1.246c.321 0 .57-.078.747-.23.176-.153.264-.41.264-.773 0-.245-.051-.446-.151-.603a.712.712 0 0 0-.404-.31c-.168-.052-.457-.078-.867-.078h-.835v1.993zm9.651.645v-5.738h3.404v.678h-2.782v1.756h2.606v.673h-2.606v1.953h2.892v.678h-3.514zm10.687-5.738h2.95v5.738h-.627v-5.06h-1.7v2.954c0 .587-.024 1.022-.069 1.305-.046.284-.143.504-.293.661a.738.738 0 0 1-.555.237c-.143 0-.31-.032-.501-.097l.105-.67a.61.61 0 0 0 .263.08.35.35 0 0 0 .318-.19c.072-.125.109-.43.109-.918v-4.04zm9.956 0h.564v4.543l2.507-4.543h.626v5.738h-.564V41.37l-2.51 4.533h-.623v-5.738z" fill="#2B2A29"/><path fill-rule="evenodd" clip-rule="evenodd" d="M234.508 5.196V27.82h-11.799a4.038 4.038 0 0 0-3.787-2.614 4.05 4.05 0 0 0-3.795 2.614H203.33V5.196h11.869a4.05 4.05 0 0 0 3.723 2.44 4.059 4.059 0 0 0 3.723-2.44h11.863zm-18.71 18.793v-15l-.541.017c-.959.073-2.045.373-3.258.912-1.454.673-2.538 1.809-3.256 3.41-.375.848-.561 1.898-.561 3.17 0 2.235.661 3.993 1.977 5.287.961.93 2.183 1.574 3.68 1.942.281.063.54.112.775.148.238.038.451.06.643.07l.541.044zm5.922-15v15c.797 0 1.716-.153 2.766-.466 1.891-.551 3.309-1.665 4.267-3.353.538-.94.806-2.165.806-3.673 0-2.235-.674-3.999-2.02-5.29-.984-.911-2.239-1.569-3.776-1.959a10.815 10.815 0 0 0-1.455-.242l-.588-.016zm-23.139 18.832h-5.149a6.22 6.22 0 0 0 .033-.585 5.724 5.724 0 0 0-5.722-5.718c-3.163 0-5.732 2.564-5.732 5.718 0 .198.014.395.032.585h-5.046V5.196h21.584V27.82zM187.743 7.992a5.728 5.728 0 0 1 5.722 5.723 5.724 5.724 0 0 1-5.722 5.72c-3.163 0-5.732-2.562-5.732-5.72 0-3.154 2.569-5.723 5.732-5.723zm-15.482-2.78v8.484a3.154 3.154 0 0 0-2.204 3.003c0 1.407.929 2.596 2.204 2.997v8.125h-5.645v-6.16h-.006a4.053 4.053 0 0 0-8.106 0v6.16h-5.722V5.213h5.722v6.28a4.053 4.053 0 0 0 8.106 0h.006v-6.28h5.645zm-41.527 0h5.263V21.39a3.147 3.147 0 0 0 3.146 3.14 3.147 3.147 0 0 0 3.152-3.14h.01V5.213h5.743V27.82h-29.389V5.213h5.766V21.39a3.148 3.148 0 0 0 3.15 3.14 3.148 3.148 0 0 0 3.151-3.14h.008V5.213z" fill="#FEFEFE"/><path fill-rule="evenodd" clip-rule="evenodd" d="M218.983 0a2.992 2.992 0 0 1 2.993 2.99 2.992 2.992 0 1 1-5.986 0A2.992 2.992 0 0 1 218.983 0zm0 27.037a2.992 2.992 0 0 1 2.993 2.99c0 1.651-1.34 2.99-2.993 2.99a2.992 2.992 0 0 1-2.993-2.99 2.993 2.993 0 0 1 2.993-2.99z" fill="#E31E24"/></svg>