<svg width="50" height="50" fill="none" xmlns="http://www.w3.org/2000/svg"><path d="M3.153 37.48a21.99 21.99 0 0 1-1.06-1.892C.263 31.9-.371 28.047.207 24.134.845 19.82 2.952 15.625 6.47 11.67a1.61 1.61 0 0 1 1.46-.503c.548.09 1.003.448 1.194.94.552 1.417 1.274 2.694 2.148 3.794.126.16.285.196.397.2a.529.529 0 0 0 .414-.177c3.359-3.74 5.418-8.908 5.799-14.551.054-.807.797-1.42 1.652-1.369 4.68.28 9.16 2.562 12.614 6.425 3.344 3.74 5.587 8.81 6.316 14.275a.436.436 0 0 0 .239.354c.15.088.273.102.441.049 2.818-.897 5.227-3.374 5.994-6.164.171-.622.754-1.067 1.437-1.095.682-.03 1.305.365 1.535.97 1.686 4.453 2.26 9.207 1.658 13.747a25.954 25.954 0 0 1-2.88 8.937c-.573 1.06-41.655 3.3-43.735-.021z" fill="url(#paint0_linear)"/><path d="M43.013 30.992a1.62 1.62 0 0 0-1.364-.404 1.547 1.547 0 0 0-1.139.815c-.746 1.479-2.898 3.995-4.441 4.419-.38.104-.57.036-.707-.045-.042-.025-.044-.027-.05-.074-.586-4.403-2.398-8.113-5.238-10.73-2.707-2.495-6.246-3.94-10.235-4.178a1.622 1.622 0 0 0-1.127.362c-.31.257-.499.62-.524 1.007-.302 4.466-1.929 8.552-4.58 11.506-.01.011-.036.041-.09.04a.099.099 0 0 1-.08-.045 11.453 11.453 0 0 1-1.682-2.971 1.506 1.506 0 0 0-.855-.845 1.646 1.646 0 0 0-1.24.011c-1.86.782-3.68 2.378-4.993 4.382a12.206 12.206 0 0 0-1.515 3.238c2.08 3.32 5.126 6.288 8.755 8.496C16.172 48.571 21.034 50 25.597 50c4.03 0 7.798-.874 11.198-2.598 3.218-1.631 5.961-3.943 8.154-6.87a24.52 24.52 0 0 0 1.938-3.03c-.764-3.235-2.78-5.486-3.874-6.51z" fill="#F0DE3C"/><defs><linearGradient id="paint0_linear" x1=".556" y1="0" x2="49.259" y2="0" gradientUnits="userSpaceOnUse"><stop stop-color="#D74339"/><stop offset="1" stop-color="#E27E36"/></linearGradient></defs></svg>