<svg width="206" height="40" fill="none" xmlns="http://www.w3.org/2000/svg"><path fill-rule="evenodd" clip-rule="evenodd" d="M89.933 1.584h115.285v25.543H89.933V1.584z" fill="#fff"/><path fill-rule="evenodd" clip-rule="evenodd" d="M31.456 7.453a2.735 2.735 0 0 1 2.74 2.73 2.734 2.734 0 0 1-2.74 2.735 2.735 2.735 0 0 1-2.735-2.735 2.735 2.735 0 0 1 2.735-2.73zm7.664 16.742h-5.012v-5.894a2.22 2.22 0 0 0 0-.38v-.01a2.736 2.736 0 0 0-5.458 0v.003a2.504 2.504 0 0 0 0 .392v5.889h-5.012v-7.51a2.737 2.737 0 0 0 0-5.243V4.515H39.12v19.68zM10.979 7.768c1.463 0 2.928.022 4.396.022v12.837h-4.117a3.714 3.714 0 0 1-.28.013 6.438 6.438 0 0 1-6.437-6.434 6.442 6.442 0 0 1 6.438-6.438zm7.647-3.224H.776v16.113H0v3.512h19.382v-3.512h-.756V4.544zm71.22 19.65H77.154v-5.893a2.699 2.699 0 0 0 0-.38v-.01h-.001a2.735 2.735 0 0 0-2.729-2.533 2.735 2.735 0 0 0-2.73 2.533v.004a2.724 2.724 0 0 0 0 .393v5.887h-5.01v-7.513a2.735 2.735 0 0 0 0-5.24V4.515h23.16v19.68zM74.501 7.453a2.736 2.736 0 0 1 2.736 2.734 2.736 2.736 0 0 1-2.736 2.734 2.735 2.735 0 0 1-2.737-2.734 2.736 2.736 0 0 1 2.737-2.734zm-20.218.316c1.464 0 2.93.022 4.398.022v12.837h-4.116a3.875 3.875 0 0 1-.282.013 6.439 6.439 0 0 1-6.438-6.434 6.443 6.443 0 0 1 6.438-6.438zm7.644-3.224H44.082v16.113h-.775v3.512H62.69v-3.512h-.762V4.544z" fill="#D74339"/><path d="M.266 39.915l1.574-4.989h.582l1.676 4.99h-.62l-.476-1.512h-1.71l-.45 1.511H.265zm1.182-2.049h1.386l-.426-1.381a15.439 15.439 0 0 1-.289-1.035c-.052.32-.126.638-.222.954l-.449 1.462zm9.324 2.05v-4.4h-1.35v-.59h3.247v.59h-1.356v4.4h-.541zm7.649 0v-4.99h2.96v.59h-2.42v1.527h2.267v.585h-2.266v1.698h2.514v.59h-3.055zm9.293-4.99h2.565v4.99h-.545v-4.4h-1.478v2.569c0 .51-.021.888-.06 1.134-.04.247-.125.438-.255.575a.641.641 0 0 1-.483.206c-.124 0-.27-.028-.436-.085l.092-.582a.528.528 0 0 0 .228.069.304.304 0 0 0 .277-.164c.063-.109.095-.375.095-.8v-3.512zm8.668 0h.54v2.13h.978c.36 0 .645.043.858.126.214.085.385.242.515.472.13.23.195.5.195.812 0 .383-.108.72-.322 1.013-.216.291-.618.436-1.209.436h-1.555v-4.989zm.54 4.428h.992c.336 0 .582-.068.737-.206.156-.138.234-.365.234-.682a.897.897 0 0 0-.138-.516.63.63 0 0 0-.352-.264c-.144-.04-.392-.061-.747-.061h-.726v1.73zm8.4.561v-4.989h2.96v.59h-2.42v1.527h2.266v.585h-2.266v1.698h2.515v.59h-3.056zm13.747 0v-4.989h1.537c.31 0 .557.049.739.145.182.097.33.247.446.451.117.205.175.43.175.677 0 .23-.05.436-.15.62-.1.183-.241.33-.424.442.239.086.427.234.564.44.137.208.206.464.206.768 0 .302-.062.567-.185.795-.124.227-.29.393-.495.497-.207.103-.49.154-.852.154h-1.56zm.542-2.892h.886c.232 0 .397-.016.494-.048a.613.613 0 0 0 .325-.24c.076-.112.115-.265.115-.458a.871.871 0 0 0-.105-.447.55.55 0 0 0-.275-.247c-.116-.046-.321-.068-.62-.068h-.82v1.508zm0 2.303h1.019c.224 0 .39-.02.497-.061a.675.675 0 0 0 .353-.29.983.983 0 0 0 .12-.51.922.922 0 0 0-.116-.478.693.693 0 0 0-.311-.286c-.13-.06-.335-.089-.614-.089h-.948v1.714zm11.392-1.16l.545.167c-.12.56-.33.978-.632 1.254a1.565 1.565 0 0 1-1.099.413c-.379 0-.703-.092-.972-.278-.27-.184-.49-.48-.66-.89-.172-.407-.258-.889-.258-1.445 0-.549.086-1.013.258-1.393.17-.381.403-.668.696-.862.293-.194.62-.29.98-.29.396 0 .735.123 1.019.369.285.246.482.607.596 1.084l-.53.153c-.182-.695-.548-1.042-1.094-1.042-.273 0-.51.07-.71.209-.2.14-.358.357-.477.652-.12.295-.18.669-.18 1.12 0 .683.12 1.195.361 1.536.24.342.562.512.962.512.294 0 .55-.104.764-.314.215-.21.358-.529.431-.955zm7.465 1.75v-4.4h-1.35v-.59h3.247v.59H79.01v4.4h-.541zm7.638 0v-4.99h1.543c.364 0 .632.032.804.096.237.086.425.246.566.48.14.233.21.52.21.86 0 .45-.114.817-.344 1.1-.229.284-.625.425-1.188.425h-1.049v2.028h-.542zm.542-2.618h1.06c.333 0 .577-.075.732-.226.154-.151.231-.378.231-.682 0-.198-.038-.367-.114-.508a.65.65 0 0 0-.276-.289c-.108-.052-.303-.078-.584-.078h-1.049v1.783zm8.312.187c0-.85.187-1.504.562-1.962.375-.456.841-.685 1.4-.685.361 0 .69.102.988.307.298.203.533.5.707.89.173.389.26.852.26 1.389 0 .74-.167 1.343-.503 1.807-.371.513-.856.769-1.455.769-.605 0-1.09-.263-1.458-.789-.333-.477-.501-1.052-.501-1.726zm.56.01c0 .615.134 1.093.406 1.432.271.339.601.508.99.508.396 0 .73-.171 1-.513.268-.343.403-.847.403-1.511 0-.429-.07-.812-.208-1.15a1.412 1.412 0 0 0-.483-.621 1.169 1.169 0 0 0-.703-.234c-.408 0-.745.17-1.009.511-.265.34-.397.867-.397 1.579zm9.249 2.42v-4.989h2.96v.59h-2.42v1.527h2.266v.585h-2.266v1.698h2.515v.59h-3.055zm8.993 0v-4.989h.542v2.05h2.129v-2.05h.541v4.99h-.541v-2.352h-2.129v2.351h-.542zm9.321 0v-4.989h.542v2.05h2.129v-2.05h.542v4.99h-.542v-2.352h-2.129v2.351h-.542zm9.171-2.43c0-.85.188-1.504.562-1.962.376-.456.842-.685 1.401-.685.36 0 .689.102.987.307.298.203.534.5.707.89.173.389.26.852.26 1.389 0 .74-.167 1.343-.503 1.807-.371.513-.856.769-1.455.769-.604 0-1.09-.263-1.457-.789-.334-.477-.502-1.052-.502-1.726zm.56.01c0 .615.134 1.093.407 1.432.27.339.601.508.989.508.396 0 .73-.171 1-.513.269-.343.403-.847.403-1.511a3 3 0 0 0-.208-1.15 1.412 1.412 0 0 0-.482-.621 1.17 1.17 0 0 0-.704-.234c-.408 0-.745.17-1.009.511-.265.34-.396.867-.396 1.579zm9.245-2.569h.491v3.95l2.18-3.95h.544v4.99h-.491v-3.942l-2.182 3.941h-.542v-4.989zm2.17-1.218h.344c-.029.293-.117.512-.265.66a.763.763 0 0 1-.563.221.755.755 0 0 1-.56-.221c-.147-.148-.234-.367-.264-.66h.344c.052.307.208.459.467.459a.49.49 0 0 0 .338-.108c.079-.074.132-.19.159-.351zm11.882 6.207v-4.989h.814l.971 3.533.193.738c.048-.183.122-.45.219-.8l.982-3.47h.728v4.988h-.521V35.74l-1.192 4.176h-.488l-1.186-4.246v4.246h-.52zm9.986 0v-4.989h2.96v.59h-2.419v1.527h2.266v.585h-2.266v1.698h2.514v.59h-3.055zm9.02-4.989h2.658v.59h-2.117v1.537h.978c.364 0 .651.042.862.127.211.083.382.242.512.473.129.23.194.501.194.813 0 .292-.061.557-.182.795-.12.24-.276.408-.469.507-.193.098-.471.147-.835.147h-1.601v-4.989zm.541 4.428h1.084c.279 0 .496-.067.649-.2.154-.132.23-.356.23-.671a.963.963 0 0 0-.131-.525.624.624 0 0 0-.351-.27c-.147-.045-.398-.067-.755-.067h-.726v1.733zm8.393.561v-4.989h2.96v.59h-2.419v1.527h2.265v.585h-2.265v1.698h2.514v.59h-3.055zm9.293-4.989h2.565v4.99h-.546v-4.4h-1.477v2.569c0 .51-.021.888-.061 1.134-.039.247-.124.438-.254.575a.642.642 0 0 1-.483.206c-.124 0-.27-.028-.436-.085l.092-.582a.524.524 0 0 0 .228.069.303.303 0 0 0 .277-.164c.062-.109.095-.375.095-.8v-3.512zm8.657 0h.491v3.95l2.18-3.95h.544v4.99h-.491v-3.942l-2.182 3.941h-.542v-4.989z" fill="#fff"/><path fill-rule="evenodd" clip-rule="evenodd" d="M203.572 4.518v19.674h-10.26a3.512 3.512 0 0 0-3.294-2.273 3.52 3.52 0 0 0-3.299 2.273H176.46V4.518h10.321a3.53 3.53 0 1 0 6.475 0h10.316zm-16.27 16.342V7.817l-.471.014c-.834.064-1.777.324-2.832.793-1.265.585-2.208 1.573-2.832 2.966-.326.737-.487 1.65-.487 2.755 0 1.944.574 3.473 1.719 4.598.835.809 1.898 1.37 3.199 1.69.245.054.47.097.674.128.207.033.392.051.559.061l.471.038zm5.15-13.043V20.86c.693 0 1.492-.133 2.405-.406 1.644-.478 2.877-1.447 3.71-2.915.468-.817.701-1.882.701-3.194 0-1.943-.586-3.477-1.757-4.6-.855-.792-1.946-1.364-3.283-1.703a9.345 9.345 0 0 0-1.265-.21l-.511-.015zM172.33 24.192h-4.476a5.64 5.64 0 0 0 .028-.508 4.977 4.977 0 0 0-4.976-4.972c-2.75 0-4.984 2.229-4.984 4.972 0 .171.012.343.028.508h-4.388V4.518h18.768v19.674zM162.906 6.95a4.98 4.98 0 0 1 4.976 4.976 4.981 4.981 0 0 1-9.96 0 4.985 4.985 0 0 1 4.984-4.976zm-13.463-2.417v7.376a2.743 2.743 0 0 0-1.916 2.612c0 1.224.808 2.257 1.916 2.606v7.065h-4.908v-5.357h-.005a3.524 3.524 0 0 0-7.049 0v5.357h-4.975V4.532h4.975v5.462a3.525 3.525 0 0 0 7.049 0h.005V4.533h4.908zm-36.11 0h4.577V18.6a2.736 2.736 0 0 0 2.736 2.73 2.736 2.736 0 0 0 2.74-2.73h.009V4.533h4.994v19.66h-25.556V4.532h5.014V18.6a2.738 2.738 0 0 0 2.74 2.73 2.737 2.737 0 0 0 2.739-2.73h.007V4.533z" fill="#373334"/><path fill-rule="evenodd" clip-rule="evenodd" d="M190.072 0a2.601 2.601 0 0 1 0 5.2 2.602 2.602 0 0 1-2.603-2.6c0-1.436 1.166-2.6 2.603-2.6zm0 23.51a2.601 2.601 0 1 1-2.603 2.6c0-1.435 1.166-2.6 2.603-2.6z" fill="#D74339"/></svg>