<svg width="50" height="51" fill="none" xmlns="http://www.w3.org/2000/svg"><path d="M47.156 21.655c-.77-.567-1.739-1.276-1.856-1.739.05-.896.305-1.769.748-2.55.678-1.556 1.378-3.17.6-4.51-.779-1.342-2.548-1.56-4.25-1.74a5.79 5.79 0 0 1-2.541-.607 5.789 5.789 0 0 1-.605-2.55c-.191-1.702-.389-3.463-1.739-4.25-1.35-.787-2.965-.098-4.521.59a5.837 5.837 0 0 1-2.552.747c-.47-.126-1.176-1.087-1.74-1.857C27.715 1.86 26.604.35 25 .35c-1.605 0-2.715 1.509-3.696 2.84-.57.771-1.276 1.739-1.739 1.858a5.962 5.962 0 0 1-2.552-.748c-1.565-.689-3.178-1.376-4.515-.602-1.337.774-1.56 2.548-1.752 4.261a5.818 5.818 0 0 1-.604 2.542 5.807 5.807 0 0 1-2.533.595c-1.704.191-3.467.39-4.252 1.74-.785 1.35-.095 2.963.592 4.522a5.8 5.8 0 0 1 .747 2.558c-.126.47-1.087 1.179-1.856 1.74C1.509 22.634 0 23.745 0 25.35s1.509 2.718 2.841 3.696c.77.568 1.74 1.276 1.857 1.74a5.821 5.821 0 0 1-.748 2.55c-.678 1.556-1.378 3.17-.6 4.51.778 1.342 2.548 1.56 4.25 1.74a5.79 5.79 0 0 1 2.54.606c.395.793.601 1.665.605 2.55.192 1.703.39 3.464 1.74 4.25 1.35.788 2.951.079 4.51-.6a5.968 5.968 0 0 1 2.57-.739c.469.127 1.175 1.087 1.738 1.857.98 1.33 2.092 2.84 3.696 2.84s2.715-1.51 3.696-2.84c.569-.772 1.276-1.74 1.739-1.859a5.87 5.87 0 0 1 2.552.748c1.556.678 3.169 1.374 4.508.602 1.339-.771 1.56-2.548 1.752-4.252a5.818 5.818 0 0 1 .604-2.541 5.807 5.807 0 0 1 2.54-.603c1.704-.19 3.467-.389 4.251-1.739.785-1.35.077-2.952-.6-4.51a5.82 5.82 0 0 1-.739-2.57c.126-.47 1.087-1.179 1.857-1.74 1.33-.98 2.841-2.093 2.841-3.695 0-1.603-1.511-2.718-2.844-3.697z" fill="#FFC107"/><path d="M18.477 30.788c-.342 0-.664-.161-.87-.435l-4.564-6.087V29.7a1.087 1.087 0 0 1-2.174 0v-8.696a1.087 1.087 0 0 1 1.956-.652l4.565 6.087v-5.435a1.087 1.087 0 0 1 2.174 0V29.7a1.087 1.087 0 0 1-1.087 1.087zm8.695-.001h-4.347c-.6 0-1.087-.487-1.087-1.087v-8.696c0-.6.487-1.087 1.087-1.087h4.348a1.087 1.087 0 0 1 0 2.174h-3.261v6.522h3.26a1.087 1.087 0 0 1 0 2.174z" fill="#FAFAFA"/><path d="M27.172 26.438h-4.347a1.087 1.087 0 0 1 0-2.174h4.348a1.087 1.087 0 0 1 0 2.174zm10.869 4.348c-.468 0-.884-.299-1.032-.743l-1.141-3.429-1.142 3.429a1.04 1.04 0 0 1-1.073.741 1.087 1.087 0 0 1-1.014-.822l-2.173-8.695a1.088 1.088 0 0 1 2.11-.527l1.268 5.074.993-2.98a1.133 1.133 0 0 1 2.063 0l.994 2.98 1.267-5.074a1.088 1.088 0 1 1 2.11.527l-2.173 8.695c-.117.47-.53.804-1.013.822l-.044.002z" fill="#FAFAFA"/></svg>