<svg width="26" height="26" viewBox="0 0 26 26" fill="none" xmlns="http://www.w3.org/2000/svg">
<path d="M19.8 7.5999C20.2 7.5999 20.6 7.9999 20.6 8.3999V17.5999C20.6 17.9999 20.2 18.3999 19.8 18.3999H6.09998C5.69998 18.3999 5.29998 17.9999 5.29998 17.5999V8.3999C5.29998 7.9999 5.69998 7.5999 6.09998 7.5999H19.8ZM19.8 6.3999H6.09998C4.99998 6.3999 4.09998 7.2999 4.09998 8.3999V17.5999C4.09998 18.6999 4.99998 19.5999 6.09998 19.5999H19.8C20.9 19.5999 21.8 18.6999 21.8 17.5999V8.3999C21.8 7.1999 20.9 6.3999 19.8 6.3999Z" fill="#FAF6F2"/>
<path d="M13 16.0998L4.9 7.9998C4.7 7.7998 4.7 7.3998 4.9 7.1998C5.1 6.9998 5.5 6.9998 5.7 7.1998L12.9 14.3998L20.1 7.1998C20.3 6.9998 20.7 6.9998 20.9 7.1998C21.1 7.3998 21.1 7.7998 20.9 7.9998L13 16.0998Z" fill="#FAF6F2"/>
</svg>
