<svg width="26" height="26" viewBox="0 0 26 26" fill="none" xmlns="http://www.w3.org/2000/svg">
<path d="M12.3 17.3L9.59998 20C9.09998 20.5 8.49998 20.8 7.79998 20.8C6.39998 20.8 5.19997 19.6 5.19997 18.2C5.19997 17.5 5.49998 16.9 5.99998 16.4L10.8 11.6C11.8 10.6 13.5 10.6 14.4 11.6L15.2 10.8C13.8 9.4 11.4 9.4 9.99998 10.8L5.19997 15.6C4.49997 16.3 4.09998 17.2 4.09998 18.2C4.09998 20.2 5.79998 21.9 7.79998 21.9C8.79998 21.9 9.69998 21.5 10.4 20.8L13.8 17.4C13.6 17.4 13.5 17.4 13.3 17.4C13 17.4 12.7 17.4 12.3 17.3Z" fill="#FAF6F2"/>
<path d="M18.1999 4.1001C17.1999 4.1001 16.2999 4.5001 15.5999 5.2001L12.1999 8.6001C12.3999 8.6001 12.4999 8.6001 12.6999 8.6001C13.0999 8.6001 13.3999 8.6001 13.6999 8.7001L16.3999 6.0001C16.8999 5.5001 17.4999 5.2001 18.1999 5.2001C19.5999 5.2001 20.7999 6.4001 20.7999 7.8001C20.7999 8.5001 20.4999 9.1001 19.9999 9.6001L15.1999 14.4001C14.1999 15.4001 12.4999 15.4001 11.5999 14.4001L10.7999 15.2001C11.4999 15.9001 12.3999 16.3001 13.3999 16.3001C14.3999 16.3001 15.2999 15.9001 15.9999 15.2001L20.7999 10.4001C21.4999 9.7001 21.8999 8.8001 21.8999 7.8001C21.7999 5.8001 20.1999 4.1001 18.1999 4.1001Z" fill="#FAF6F2"/>
</svg>
