<svg width="237" height="46" viewBox="0 0 237 46" fill="none" xmlns="http://www.w3.org/2000/svg">
<path fill-rule="evenodd" clip-rule="evenodd" d="M103.824 1.82114H236.401V31.1959H103.824V1.82114Z" fill="#2B2A29"/>
<path fill-rule="evenodd" clip-rule="evenodd" d="M36.5757 8.57151C38.3138 8.57151 39.7257 9.97731 39.7257 11.71C39.7257 13.4543 38.3138 14.8561 36.5757 14.8561C34.8426 14.8561 33.4295 13.4543 33.4295 11.71C33.4295 9.97731 34.8426 8.57151 36.5757 8.57151ZM45.3888 27.8243H39.6249V21.0461C39.6313 20.9701 39.6346 20.8999 39.6346 20.8263C39.6346 20.7523 39.6313 20.6811 39.6249 20.6088V20.5971C39.5078 18.9663 38.1457 17.681 36.4861 17.681C34.8323 17.681 33.4669 18.9663 33.3484 20.5971V20.6014C33.3425 20.6754 33.3404 20.7523 33.3404 20.8263C33.3404 20.9044 33.3425 20.978 33.3484 21.0517V27.8243H27.5845V19.1886C28.8858 18.7996 29.8296 17.5959 29.8296 16.1729C29.8296 14.7482 28.8858 13.5445 27.5845 13.1579V5.19196H45.3888V27.8243ZM13.0261 8.93368C14.7087 8.93368 16.3942 8.9586 18.0818 8.9586V23.7214H13.3479C13.2417 23.7293 13.1361 23.7355 13.0261 23.7355C8.9408 23.7355 5.62339 20.422 5.62339 16.337C5.62339 12.2527 8.9408 8.93368 13.0261 8.93368ZM21.8202 5.22606H18.0818H1.29334V23.7558H0.400757V27.7942H22.6904V23.7558H21.8202V23.7214V5.22606ZM103.723 27.824H89.1286V21.0458C89.1336 20.9736 89.1363 20.9014 89.1363 20.8284C89.1363 20.755 89.1336 20.6822 89.1286 20.61V20.5977H89.1277C89.0098 18.969 87.6497 17.6843 85.9895 17.6843C84.3288 17.6843 82.9689 18.969 82.851 20.5977H82.8505V20.6021C82.8452 20.6766 82.8424 20.7523 82.8424 20.8284C82.8424 20.9041 82.8452 20.9792 82.8505 21.0537V27.824H77.0876V19.1847C78.3865 18.7975 79.3336 17.5948 79.3336 16.1712C79.3336 14.7479 78.3865 13.5458 77.0876 13.1585V5.19281H103.723V27.824ZM86.0777 8.56965C87.8155 8.56965 89.2247 9.97759 89.2247 11.7137C89.2247 13.4499 87.8155 14.8578 86.0777 14.8578C84.3397 14.8578 82.9306 13.4499 82.9306 11.7137C82.9306 9.97759 84.3397 8.56965 86.0777 8.56965ZM62.8273 8.93368C64.5106 8.93368 66.1972 8.9586 67.8851 8.9586V23.7214H63.1515C63.0409 23.7293 62.9368 23.7355 62.8273 23.7355C58.7426 23.7355 55.4233 20.422 55.4233 16.337C55.4233 12.2527 58.7426 8.93368 62.8273 8.93368ZM71.6177 5.22606H67.8851H51.094V23.7558H50.2041V27.7942H72.4941V23.7558H71.6177V23.7214V5.22606Z" fill="#E31E24"/>
<path d="M0.706177 45.9025L2.51673 40.1654H3.18652L5.11341 45.9025H4.40072L3.85258 44.1648H1.88552L1.36793 45.9025H0.706177ZM2.06614 43.5461H3.65978L3.17046 41.9577C3.0194 41.4702 2.9085 41.0735 2.83764 40.7678C2.77724 41.1365 2.69303 41.5011 2.58214 41.8646L2.06614 43.5461ZM12.7883 45.9025V40.8426H11.2371V40.1654H14.9702V40.8426H13.411V45.9025H12.7883ZM21.5847 45.9025V40.1654H24.9889V40.8426H22.2067V42.5991H24.8124V43.2724H22.2067V45.2254H25.0986V45.9025H21.5847ZM32.2719 40.1654H35.2217V45.9025H34.5943V40.8426H32.8951V43.7972C32.8951 44.3838 32.871 44.8191 32.8254 45.1023C32.7799 45.3855 32.6824 45.606 32.5327 45.7634C32.3817 45.9213 32.1969 46 31.9777 46C31.8347 46 31.6676 45.9679 31.4762 45.9025L31.5818 45.2334C31.6836 45.2853 31.772 45.3121 31.8443 45.3121C31.9832 45.3121 32.0887 45.2495 32.1622 45.1236C32.2345 44.9984 32.2719 44.6922 32.2719 44.2045V40.1654ZM42.2396 40.1654H42.8612V42.6151H43.9859C44.3991 42.6151 44.728 42.6633 44.9729 42.7592C45.2189 42.8571 45.4155 43.0375 45.5651 43.3019C45.7134 43.5663 45.7884 43.8775 45.7884 44.2355C45.7884 44.6762 45.6652 45.0649 45.4182 45.4004C45.1707 45.7356 44.7082 45.9025 44.0288 45.9025H42.2396V40.1654ZM42.8612 45.2575H44.002C44.3883 45.2575 44.6706 45.1787 44.8497 45.0197C45.0287 44.8619 45.1186 44.6001 45.1186 44.2355C45.1186 43.9951 45.0651 43.7972 44.9596 43.6424C44.854 43.4872 44.7188 43.3859 44.5544 43.3389C44.3899 43.2923 44.1037 43.2682 43.696 43.2682H42.8612V45.2575ZM52.5204 45.9025V40.1654H55.9245V40.8426H53.1424V42.5991H55.7481V43.2724H53.1424V45.2254H56.0343V45.9025H52.5204ZM68.3306 45.9025V40.1654H70.0982C70.4551 40.1654 70.7386 40.2212 70.9471 40.3321C71.1571 40.4433 71.3269 40.6153 71.4605 40.8506C71.5943 41.0857 71.6613 41.3448 71.6613 41.6291C71.6613 41.8924 71.6035 42.1302 71.4887 42.3411C71.3737 42.5525 71.2119 42.7222 71.0018 42.8502C71.2761 42.9492 71.4926 43.1189 71.6506 43.3565C71.8082 43.5957 71.887 43.8897 71.887 44.2394C71.887 44.5868 71.8162 44.8913 71.6747 45.1531C71.5316 45.4148 71.3415 45.606 71.1051 45.7248C70.8667 45.8436 70.5408 45.9025 70.1251 45.9025H68.3306ZM68.9537 42.5766H69.9724C70.2387 42.5766 70.4283 42.5578 70.5408 42.5215C70.7026 42.4668 70.827 42.3748 70.9138 42.2452C71.0018 42.1168 71.0462 41.9405 71.0462 41.719C71.0462 41.513 71.006 41.3406 70.9257 41.2046C70.8469 41.067 70.7413 40.9733 70.6089 40.9198C70.4765 40.8678 70.2398 40.8426 69.8974 40.8426H68.9537V42.5766ZM68.9537 45.2254H70.1251C70.3828 45.2254 70.5741 45.2024 70.6973 45.1546C70.8747 45.0878 71.0099 44.9754 71.1024 44.8206C71.1947 44.6654 71.2413 44.4705 71.2413 44.2355C71.2413 44.0192 71.1972 43.8362 71.1077 43.6851C71.0194 43.5354 70.9004 43.426 70.7494 43.3565C70.5993 43.287 70.364 43.2538 70.0431 43.2538H68.9537V45.2254ZM82.0544 43.8908L82.6814 44.083C82.5421 44.7271 82.3004 45.2077 81.9538 45.5246C81.6076 45.8425 81.1865 46 80.6902 46C80.2546 46 79.8816 45.8945 79.5724 45.6808C79.2623 45.4684 79.0098 45.1279 78.8131 44.6574C78.6155 44.1885 78.5163 43.6344 78.5163 42.9946C78.5163 42.3641 78.6155 41.8298 78.8131 41.3929C79.0098 40.9547 79.2772 40.6247 79.6142 40.4016C79.9509 40.1785 80.3269 40.0675 80.7412 40.0675C81.1959 40.0675 81.5861 40.2094 81.9125 40.4926C82.24 40.7758 82.4675 41.1911 82.5983 41.7387L81.9875 41.915C81.7789 41.1163 81.3589 40.7169 80.7304 40.7169C80.4164 40.7169 80.1448 40.7972 79.9149 40.9573C79.6849 41.1178 79.5017 41.3674 79.3651 41.7067C79.2274 42.046 79.1594 42.476 79.1594 42.9946C79.1594 43.78 79.2971 44.3689 79.574 44.7617C79.8506 45.1546 80.2197 45.3506 80.6796 45.3506C81.0182 45.3506 81.3123 45.2307 81.5583 44.9888C81.8053 44.7473 81.9699 44.3811 82.0544 43.8908ZM90.6386 45.9025V40.8426H89.0874V40.1654H92.8205V40.8426H91.2613V45.9025H90.6386ZM99.4231 45.9025V40.1654H101.197C101.616 40.1654 101.923 40.2014 102.121 40.2748C102.394 40.3737 102.611 40.558 102.773 40.8265C102.934 41.0948 103.014 41.425 103.014 41.8164C103.014 42.3331 102.883 42.7554 102.619 43.0814C102.355 43.4074 101.899 43.5702 101.252 43.5702H100.046V45.9025H99.4231ZM100.046 42.893H101.264C101.648 42.893 101.929 42.8062 102.107 42.6323C102.284 42.4588 102.372 42.1982 102.372 41.8485C102.372 41.6211 102.328 41.4262 102.242 41.2645C102.153 41.1029 102.048 40.9921 101.923 40.932C101.8 40.8721 101.576 40.8426 101.252 40.8426H100.046V42.893ZM109.605 43.1082C109.605 42.1302 109.82 41.378 110.251 40.8518C110.683 40.3267 111.219 40.0638 111.862 40.0638C112.276 40.0638 112.655 40.181 112.997 40.4165C113.339 40.65 113.611 40.9921 113.81 41.4397C114.009 41.8871 114.109 42.4202 114.109 43.0375C114.109 43.8881 113.917 44.5814 113.531 45.1156C113.104 45.7061 112.546 46 111.858 46C111.162 46 110.603 45.698 110.181 45.0931C109.797 44.5439 109.605 43.8828 109.605 43.1082ZM110.248 43.1201C110.248 43.8266 110.403 44.3758 110.716 44.7656C111.027 45.1557 111.407 45.3506 111.854 45.3506C112.31 45.3506 112.694 45.1531 113.004 44.7603C113.313 44.3662 113.467 43.7865 113.467 43.0226C113.467 42.5296 113.388 42.0889 113.228 41.7002C113.105 41.4021 112.921 41.1645 112.673 40.9856C112.427 40.8063 112.157 40.7169 111.864 40.7169C111.395 40.7169 111.007 40.9134 110.704 41.3046C110.399 41.696 110.248 42.3014 110.248 43.1201ZM120.885 45.9025V40.1654H124.289V40.8426H121.507V42.5991H124.112V43.2724H121.507V45.2254H124.398V45.9025H120.885ZM131.227 45.9025V40.1654H131.85V42.5215H134.298V40.1654H134.921V45.9025H134.298V43.1987H131.85V45.9025H131.227ZM141.946 45.9025V40.1654H142.569V42.5215H145.018V40.1654H145.641V45.9025H145.018V43.1987H142.569V45.9025H141.946ZM152.493 43.1082C152.493 42.1302 152.709 41.378 153.139 40.8518C153.571 40.3267 154.107 40.0638 154.75 40.0638C155.165 40.0638 155.543 40.181 155.885 40.4165C156.228 40.65 156.499 40.9921 156.698 41.4397C156.898 41.8871 156.998 42.4202 156.998 43.0375C156.998 43.8881 156.805 44.5814 156.419 45.1156C155.992 45.7061 155.435 46 154.746 46C154.051 46 153.492 45.698 153.07 45.0931C152.686 44.5439 152.493 43.8828 152.493 43.1082ZM153.136 43.1201C153.136 43.8266 153.291 44.3758 153.604 44.7656C153.916 45.1557 154.296 45.3506 154.742 45.3506C155.198 45.3506 155.582 45.1531 155.892 44.7603C156.201 44.3662 156.356 43.7865 156.356 43.0226C156.356 42.5296 156.276 42.0889 156.117 41.7002C155.994 41.4021 155.809 41.1645 155.562 40.9856C155.316 40.8063 155.046 40.7169 154.753 40.7169C154.284 40.7169 153.896 40.9134 153.592 41.3046C153.288 41.696 153.136 42.3014 153.136 43.1201ZM163.769 40.1654H164.333V44.7083L166.84 40.1654H167.466V45.9025H166.902V41.37L164.392 45.9025H163.769V40.1654ZM166.264 38.7641H166.66C166.626 39.1007 166.525 39.353 166.355 39.5226C166.185 39.6923 165.97 39.7779 165.708 39.7779C165.447 39.7779 165.232 39.6923 165.063 39.5226C164.895 39.353 164.795 39.1007 164.76 38.7641H165.155C165.216 39.1168 165.395 39.2918 165.693 39.2918C165.86 39.2918 165.989 39.2502 166.081 39.1677C166.172 39.0831 166.233 38.9498 166.264 38.7641ZM179.928 45.9025V40.1654H180.864L181.981 44.2275L182.203 45.077C182.259 44.8661 182.343 44.5588 182.455 44.1568L183.584 40.1654H184.422V45.9025H183.822V41.1003L182.451 45.9025H181.891L180.527 41.0189V45.9025H179.928ZM191.412 45.9025V40.1654H194.816V40.8426H192.034V42.5991H194.64V43.2724H192.034V45.2254H194.926V45.9025H191.412ZM201.785 40.1654H204.842V40.8426H202.408V42.611H203.533C203.951 42.611 204.281 42.6591 204.523 42.7566C204.767 42.8529 204.962 43.0348 205.112 43.3003C205.26 43.5663 205.335 43.8775 205.335 44.2355C205.335 44.5723 205.266 44.8768 205.126 45.1504C204.988 45.4256 204.808 45.6193 204.586 45.7329C204.364 45.8464 204.045 45.9025 203.626 45.9025H201.785V40.1654ZM202.408 45.2575H203.654C203.975 45.2575 204.224 45.1798 204.401 45.0277C204.577 44.8752 204.665 44.6173 204.665 44.2554C204.665 44.0096 204.614 43.8094 204.514 43.6516C204.414 43.4953 204.279 43.3925 204.11 43.3416C203.942 43.2896 203.653 43.2644 203.243 43.2644H202.408V45.2575ZM212.059 45.9025V40.1654H215.463V40.8426H212.681V42.5991H215.287V43.2724H212.681V45.2254H215.573V45.9025H212.059ZM222.746 40.1654H225.696V45.9025H225.069V40.8426H223.369V43.7972C223.369 44.3838 223.345 44.8191 223.3 45.1023C223.254 45.3855 223.157 45.606 223.007 45.7634C222.856 45.9213 222.671 46 222.452 46C222.309 46 222.142 45.9679 221.951 45.9025L222.056 45.2334C222.158 45.2853 222.246 45.3121 222.319 45.3121C222.457 45.3121 222.563 45.2495 222.637 45.1236C222.709 44.9984 222.746 44.6922 222.746 44.2045V40.1654ZM232.702 40.1654H233.266V44.7083L235.773 40.1654H236.399V45.9025H235.835V41.37L233.325 45.9025H232.702V40.1654Z" fill="#2B2A29"/>
<path fill-rule="evenodd" clip-rule="evenodd" d="M234.508 5.1958V27.8213H222.709C222.135 26.2905 220.656 25.2067 218.922 25.2067C217.185 25.2067 215.706 26.2905 215.127 27.8213H203.33V5.1958H215.199C215.822 6.63055 217.248 7.63534 218.922 7.63534C220.589 7.63534 222.021 6.63055 222.645 5.1958H234.508ZM215.798 23.9892V8.98954L215.257 9.00574C214.298 9.07883 213.212 9.37851 211.999 9.91809C210.545 10.5908 209.461 11.727 208.743 13.3285C208.368 14.1763 208.182 15.2261 208.182 16.4974C208.182 18.733 208.843 20.4912 210.159 21.7847C211.12 22.7144 212.342 23.3592 213.839 23.7273C214.12 23.7903 214.379 23.8389 214.614 23.8749C214.852 23.9126 215.065 23.9341 215.257 23.9455L215.798 23.9892ZM221.72 8.98954V23.9892C222.517 23.9892 223.436 23.8363 224.486 23.5225C226.377 22.972 227.795 21.8578 228.753 20.17C229.291 19.2298 229.559 18.0055 229.559 16.4974C229.559 14.262 228.885 12.4981 227.539 11.2061C226.555 10.2956 225.3 9.63848 223.763 9.24823C223.168 9.11595 222.681 9.03354 222.308 9.00574L221.72 8.98954ZM198.581 27.8213H193.432C193.45 27.6315 193.465 27.4339 193.465 27.2361C193.465 24.0817 190.9 21.5185 187.743 21.5185C184.58 21.5185 182.011 24.0817 182.011 27.2361C182.011 27.4339 182.025 27.6315 182.043 27.8213H176.997V5.1958H198.581V27.8213ZM187.743 7.9925C190.9 7.9925 193.465 10.5607 193.465 13.7148C193.465 16.873 190.9 19.4349 187.743 19.4349C184.58 19.4349 182.011 16.873 182.011 13.7148C182.011 10.5607 184.58 7.9925 187.743 7.9925ZM172.261 5.21286V13.6959C170.986 14.0994 170.057 15.2895 170.057 16.6994C170.057 18.1065 170.986 19.2946 172.261 19.6956V27.8213H166.616V21.6602H166.61C166.61 19.4236 164.794 17.6101 162.557 17.6101C160.321 17.6101 158.504 19.4236 158.504 21.6602V27.8213H152.782V5.21286H158.504V11.4936C158.504 13.7219 160.321 15.5373 162.557 15.5373C164.794 15.5373 166.61 13.7219 166.61 11.4936H166.616V5.21286H172.261ZM130.734 5.21286H135.997V21.3905C135.997 23.1215 137.41 24.5293 139.143 24.5293C140.884 24.5293 142.295 23.1215 142.295 21.3905H142.305V5.21286H148.048V27.8213H118.659V5.21286H124.425V21.3905C124.425 23.1215 125.838 24.5293 127.575 24.5293C129.313 24.5293 130.726 23.1215 130.726 21.3905H130.734V5.21286Z" fill="#FEFEFE"/>
<path fill-rule="evenodd" clip-rule="evenodd" d="M218.983 0C220.636 0 221.976 1.33916 221.976 2.99017C221.976 4.64104 220.636 5.98019 218.983 5.98019C217.331 5.98019 215.99 4.64104 215.99 2.99017C215.99 1.33916 217.331 0 218.983 0Z" fill="#E31E24"/>
<path fill-rule="evenodd" clip-rule="evenodd" d="M218.983 27.0366C220.636 27.0366 221.976 28.3758 221.976 30.0268C221.976 31.6781 220.636 33.0168 218.983 33.0168C217.331 33.0168 215.99 31.6781 215.99 30.0268C215.99 28.3758 217.331 27.0366 218.983 27.0366Z" fill="#E31E24"/>
</svg>
