<svg width="26" height="26" fill="none" xmlns="http://www.w3.org/2000/svg"><path d="M19.8 22.4H6.1c-1.4 0-2.6-1.2-2.6-2.6V6.1c0-1.4 1.2-2.6 2.6-2.6h13.7c1.4 0 2.6 1.2 2.6 2.6v13.7c0 1.5-1.1 2.6-2.6 2.6zM6.1 4.7c-.8 0-1.4.6-1.4 1.4v13.7c0 .8.6 1.4 1.4 1.4h13.7c.8 0 1.4-.6 1.4-1.4V6.1c0-.8-.6-1.4-1.4-1.4H6.1z" fill="#FAF6F2"/><path d="M17.1 13.7c-.2-.3-.1-.4 0-.6 0 0 1.7-2.3 1.9-3.1.1-.3 0-.5-.4-.5h-1.4c-.3 0-.5.2-.6.4 0 0-.7 1.7-1.7 2.8-.3.3-.5.4-.6.4-.1 0-.2-.1-.2-.4V10c0-.3-.1-.5-.4-.5h-2.2c-.2 0-.3.2-.3.3 0 .3.5.4.5 1.3v2c0 .4-.1.5-.3.5-.5 0-1.6-1.7-2.3-3.6-.1-.4-.2-.5-.6-.5H7.1c-.4 0-.5.2-.5.4 0 .4.5 2.1 2.2 4.5 1.1 1.6 2.7 2.5 4.2 2.5.9 0 1-.2 1-.5 0-1.5-.1-1.7.4-1.7.2 0 .6.1 1.4.9.9.9 1.1 1.3 1.6 1.3h1.4c.4 0 .6-.2.5-.6-.4-.9-2.1-2.5-2.2-2.6z" fill="#FAF6F2"/></svg>