<svg width="26" height="26" fill="none" xmlns="http://www.w3.org/2000/svg"><path d="M20.2 15.5c-1.1 0-2.1-.2-3.1-.5-.5-.2-1.1 0-1.4.3l-2 1.5c-2.3-1.2-3.7-2.6-4.9-4.9l1.4-1.9c.4-.4.5-.9.3-1.4-.3-1-.5-2.1-.5-3.1.1-.9-.6-1.5-1.4-1.5H5.4C4.6 4 4 4.6 4 5.4c0 8.9 7.3 16.2 16.2 16.2.8 0 1.4-.6 1.4-1.4V17c0-.8-.6-1.5-1.4-1.5zm.4 4.7c0 .2-.2.4-.4.4C11.8 20.6 5 13.8 5 5.4c0-.2.2-.4.4-.4h3.2c.2 0 .4.2.4.4 0 1.2.2 2.3.5 3.4.1.2 0 .3-.2.5l-1.5 2.3c-.1.1-.1.3 0 .5 1.4 2.7 3 4.4 5.7 5.8.2.1.4.1.5 0l2.3-1.7c.1-.1.3-.2.4-.1 1.1.4 2.3.6 3.4.6.2 0 .4.2.4.4v3.1h.1z" fill="#fff"/></svg>