<svg width="50" height="50" viewBox="0 0 50 50" fill="none" xmlns="http://www.w3.org/2000/svg">
<path d="M3.15302 37.4798C2.76522 36.8606 2.41106 36.2289 2.09296 35.5877C0.262988 31.9 -0.371181 28.0468 0.207068 24.1344C0.844884 19.8196 2.95203 15.6253 6.46974 11.6687C6.82634 11.2678 7.3827 11.0759 7.93056 11.1659C8.47801 11.256 8.93267 11.6138 9.12393 12.1051C9.67584 13.5227 10.3984 14.7995 11.2716 15.9C11.398 16.0591 11.5573 16.0964 11.6691 16.0995C11.7619 16.1026 11.9402 16.0827 12.0833 15.9233C15.4417 12.1826 17.501 7.01479 17.882 1.3717C17.9363 0.564504 18.6786 -0.0481373 19.5336 0.0029798C24.2147 0.282979 28.6944 2.56493 32.1481 6.42808C35.492 10.1684 37.7349 15.2385 38.4635 20.7035C38.4858 20.869 38.5526 20.9682 38.7026 21.0567C38.8525 21.1452 38.9765 21.1589 39.1443 21.1055C41.9622 20.2087 44.3708 17.7322 45.1379 14.9425C45.3093 14.3199 45.892 13.8751 46.5752 13.8465C47.2572 13.8175 47.8804 14.2116 48.1101 14.8178C49.7959 19.2703 50.3693 24.0238 49.7683 28.564C49.3485 31.7341 48.3658 34.769 46.8876 37.5011C46.315 38.5601 5.23301 40.8008 3.15302 37.4798Z" fill="url(#paint0_linear)"/>
<path d="M43.0125 30.9921C42.6546 30.6568 42.1453 30.5065 41.6489 30.5877C41.1513 30.6694 40.7266 30.973 40.5102 31.4026C39.7642 32.8815 37.6121 35.3981 36.0686 35.8219C35.6897 35.926 35.4989 35.8577 35.3623 35.7773C35.3202 35.7521 35.3185 35.7502 35.3125 35.7033C34.7257 31.3003 32.914 27.5898 30.0738 24.9721C27.3673 22.4781 23.8281 21.0334 19.8387 20.7946C19.4274 20.7706 19.0218 20.9007 18.7118 21.1574C18.4022 21.4141 18.2134 21.7762 18.1875 22.1637C17.8856 26.6296 16.259 30.7163 13.6073 33.67C13.5971 33.6811 13.572 33.7112 13.5185 33.7093C13.4764 33.7082 13.4545 33.6876 13.4371 33.6654C12.7543 32.8048 12.189 31.805 11.7562 30.6938C11.6079 30.3127 11.2983 30.0068 10.9012 29.8488C10.5041 29.6909 10.0551 29.6951 9.66164 29.8603C7.80046 30.6415 5.98021 32.2384 4.66811 34.2418C3.98248 35.2894 3.47271 36.3857 3.15259 37.4798C5.23258 40.8005 8.27903 43.7683 11.9078 45.9762C16.1719 48.571 21.0337 50 25.5969 50C29.6272 50 33.3946 49.1257 36.7952 47.4022C40.0126 45.771 42.7564 43.4593 44.9494 40.5315C45.667 39.5733 46.3142 38.5601 46.8872 37.5011C46.1233 34.2666 44.107 32.0163 43.0125 30.9921Z" fill="#F0DE3C"/>
<defs>
<linearGradient id="paint0_linear" x1="0.555556" y1="0" x2="49.2593" y2="0" gradientUnits="userSpaceOnUse">
<stop stop-color="#D74339"/>
<stop offset="1" stop-color="#E27E36"/>
</linearGradient>
</defs>
</svg>
