<svg width="206" height="40" viewBox="0 0 206 40" fill="none" xmlns="http://www.w3.org/2000/svg">
<path fill-rule="evenodd" clip-rule="evenodd" d="M89.9331 1.58359H205.218V27.1269H89.9331V1.58359Z" fill="white"/>
<path fill-rule="evenodd" clip-rule="evenodd" d="M31.4565 7.45348C32.9679 7.45348 34.1956 8.67592 34.1956 10.1826C34.1956 11.6994 32.9679 12.9183 31.4565 12.9183C29.9495 12.9183 28.7206 11.6994 28.7206 10.1826C28.7206 8.67592 29.9495 7.45348 31.4565 7.45348ZM39.12 24.195H34.1079V18.301C34.1135 18.2349 34.1164 18.1738 34.1164 18.1098C34.1164 18.0455 34.1135 17.9835 34.1079 17.9207V17.9105C34.0061 16.4924 32.8217 15.3748 31.3785 15.3748C29.9405 15.3748 28.7532 16.4924 28.6501 17.9105V17.9143C28.645 17.9786 28.6432 18.0455 28.6432 18.1098C28.6432 18.1777 28.645 18.2418 28.6501 18.3058V24.195H23.6381V16.6857C24.7696 16.3475 25.5903 15.3008 25.5903 14.0634C25.5903 12.8245 24.7696 11.7778 23.6381 11.4417V4.51474H39.12V24.195ZM10.9786 7.76841C12.4417 7.76841 13.9073 7.79009 15.3748 7.79009V20.6273H11.2584C11.1661 20.6342 11.0743 20.6395 10.9786 20.6395C7.42612 20.6395 4.54142 17.7582 4.54142 14.2061C4.54142 10.6546 7.42612 7.76841 10.9786 7.76841ZM18.6256 4.5444H15.3748H0.776158V20.6572H0V24.1689H19.3823V20.6572H18.6256V20.6273V4.5444ZM89.8452 24.1948H77.1546V18.3007C77.159 18.2379 77.1614 18.1751 77.1614 18.1117C77.1614 18.0479 77.159 17.9845 77.1546 17.9217V17.911H77.1539C77.0513 16.4948 75.8686 15.3777 74.425 15.3777C72.9809 15.3777 71.7984 16.4948 71.6958 17.911H71.6955V17.9149C71.6908 17.9797 71.6883 18.0455 71.6883 18.1117C71.6883 18.1775 71.6908 18.2428 71.6955 18.3076V24.1948H66.6842V16.6823C67.8137 16.3456 68.6372 15.2998 68.6372 14.0619C68.6372 12.8243 67.8137 11.7789 66.6842 11.4422V4.51548H89.8452V24.1948ZM74.5017 7.45186C76.0128 7.45186 77.2382 8.67616 77.2382 10.1859C77.2382 11.6955 76.0128 12.9198 74.5017 12.9198C72.9904 12.9198 71.7651 11.6955 71.7651 10.1859C71.7651 8.67616 72.9904 7.45186 74.5017 7.45186ZM54.284 7.76841C55.7477 7.76841 57.2143 7.79009 58.6821 7.79009V20.6273H54.5659C54.4697 20.6342 54.3792 20.6395 54.284 20.6395C50.732 20.6395 47.8457 17.7582 47.8457 14.2061C47.8457 10.6546 50.732 7.76841 54.284 7.76841ZM61.9278 4.5444H58.6821H44.0811V20.6572H43.3073V24.1689H62.6898V20.6572H61.9278V20.6273V4.5444Z" fill="#D74339"/>
<path d="M0.265625 39.9153L1.84002 34.9265H2.42244L4.098 39.9153H3.47828L3.00163 38.4042H1.29114L0.841066 39.9153H0.265625ZM1.4482 37.8662H2.83398L2.40848 36.485C2.27712 36.061 2.18069 35.7161 2.11907 35.4502C2.06655 35.7709 1.99333 36.0879 1.8969 36.404L1.4482 37.8662ZM10.7718 39.9153V35.5153H9.42294V34.9265H12.6691V35.5153H11.3133V39.9153H10.7718ZM18.4208 39.9153V34.9265H21.381V35.5153H18.9617V37.0427H21.2276V37.6282H18.9617V39.3264H21.4764V39.9153H18.4208ZM27.7141 34.9265H30.2791V39.9153H29.7336V35.5153H28.256V38.0845C28.256 38.5946 28.235 38.9731 28.1954 39.2194C28.1558 39.4656 28.071 39.6574 27.9409 39.7942C27.8095 39.9316 27.6489 40 27.4583 40C27.3339 40 27.1886 39.9721 27.0222 39.9153L27.114 39.3334C27.2025 39.3785 27.2794 39.4018 27.3423 39.4018C27.463 39.4018 27.5548 39.3473 27.6187 39.2379C27.6816 39.129 27.7141 38.8628 27.7141 38.4387V34.9265ZM36.3817 34.9265H36.9222V37.0566H37.9002C38.2595 37.0566 38.5455 37.0985 38.7584 37.1819C38.9724 37.267 39.1433 37.4239 39.2734 37.6538C39.4024 37.8838 39.4676 38.1543 39.4676 38.4656C39.4676 38.8488 39.3604 39.1868 39.1456 39.4786C38.9304 39.7701 38.5283 39.9153 37.9375 39.9153H36.3817V34.9265ZM36.9222 39.3543H37.9142C38.2501 39.3543 38.4956 39.2858 38.6513 39.1476C38.807 39.0104 38.8852 38.7827 38.8852 38.4656C38.8852 38.2566 38.8386 38.0845 38.7468 37.9499C38.655 37.815 38.5375 37.7269 38.3945 37.686C38.2515 37.6455 38.0026 37.6246 37.6481 37.6246H36.9222V39.3543ZM45.3214 39.9153V34.9265H48.2816V35.5153H45.8623V37.0427H48.1282V37.6282H45.8623V39.3264H48.377V39.9153H45.3214ZM59.0694 39.9153V34.9265H60.6065C60.9169 34.9265 61.1634 34.9749 61.3447 35.0714C61.5273 35.1681 61.675 35.3176 61.7911 35.5223C61.9075 35.7267 61.9658 35.952 61.9658 36.1992C61.9658 36.4282 61.9155 36.6349 61.8157 36.8184C61.7156 37.0022 61.5749 37.1497 61.3923 37.261C61.6308 37.3471 61.8191 37.4947 61.9564 37.7013C62.0935 37.9093 62.162 38.1649 62.162 38.469C62.162 38.7711 62.1005 39.0359 61.9774 39.2636C61.853 39.4912 61.6877 39.6574 61.4821 39.7607C61.2748 39.864 60.9914 39.9153 60.6299 39.9153H59.0694ZM59.6113 37.0231H60.4971C60.7287 37.0231 60.8936 37.0068 60.9914 36.9753C61.1321 36.9277 61.2402 36.8477 61.3157 36.735C61.3923 36.6233 61.4309 36.47 61.4309 36.2774C61.4309 36.0983 61.3959 35.9484 61.3261 35.8301C61.2576 35.7105 61.1658 35.629 61.0506 35.5825C60.9355 35.5372 60.7297 35.5153 60.4319 35.5153H59.6113V37.0231ZM59.6113 39.3264H60.6299C60.854 39.3264 61.0203 39.3065 61.1275 39.2649C61.2818 39.2068 61.3993 39.1091 61.4798 38.9745C61.56 38.8395 61.6005 38.67 61.6005 38.4656C61.6005 38.2776 61.5622 38.1184 61.4844 37.9871C61.4075 37.8569 61.3041 37.7618 61.1728 37.7013C61.0423 37.6409 60.8377 37.612 60.5586 37.612H59.6113V39.3264ZM71.0032 38.1659L71.5484 38.333C71.4273 38.8931 71.2171 39.3111 70.9157 39.5866C70.6147 39.863 70.2485 40 69.817 40C69.4381 40 69.1138 39.9083 68.845 39.7225C68.5753 39.5378 68.3558 39.2417 68.1847 38.8325C68.0128 38.4248 67.9266 37.943 67.9266 37.3867C67.9266 36.8383 68.0128 36.3737 68.1847 35.9938C68.3558 35.6128 68.5883 35.3259 68.8813 35.1318C69.1741 34.9378 69.501 34.8413 69.8613 34.8413C70.2567 34.8413 70.596 34.9647 70.8798 35.211C71.1646 35.4572 71.3624 35.8184 71.4762 36.2946L70.9451 36.4479C70.7637 35.7533 70.3984 35.406 69.8519 35.406C69.5789 35.406 69.3427 35.4758 69.1428 35.615C68.9428 35.7546 68.7835 35.9717 68.6647 36.2667C68.545 36.5618 68.4859 36.9356 68.4859 37.3867C68.4859 38.0696 68.6056 38.5817 68.8464 38.9233C69.0869 39.2648 69.4078 39.4353 69.8078 39.4353C70.1022 39.4353 70.3579 39.331 70.5718 39.1207C70.7866 38.9107 70.9297 38.5922 71.0032 38.1659ZM78.4677 39.9153V35.5153H77.1189V34.9265H80.3651V35.5153H79.0092V39.9153H78.4677ZM86.1064 39.9153V34.9265H87.6492C88.0131 34.9265 88.2806 34.9577 88.4526 35.0215C88.6897 35.1075 88.8783 35.2678 89.0191 35.5013C89.1594 35.7346 89.2292 36.0218 89.2292 36.3621C89.2292 36.8114 89.1155 37.1787 88.8853 37.462C88.656 37.7456 88.2596 37.8871 87.6968 37.8871H86.6483V39.9153H86.1064ZM86.6483 37.2983H87.7074C88.0411 37.2983 88.2852 37.2228 88.4399 37.0716C88.5945 36.9207 88.671 36.6941 88.671 36.39C88.671 36.1923 88.6328 36.0228 88.5574 35.8822C88.4805 35.7416 88.3887 35.6453 88.2806 35.5931C88.1734 35.541 87.9782 35.5153 87.6968 35.5153H86.6483V37.2983ZM94.96 37.4854C94.96 36.6349 95.1472 35.9809 95.5218 35.5233C95.8973 35.0667 96.3633 34.8381 96.9226 34.8381C97.2831 34.8381 97.6121 34.94 97.9098 35.1448C98.2076 35.3478 98.4434 35.6453 98.6167 36.0345C98.79 36.4236 98.8772 36.8872 98.8772 37.4239C98.8772 38.1635 98.7098 38.7665 98.3738 39.2309C98.003 39.7444 97.518 40 96.9192 40C96.3144 40 95.8284 39.7374 95.4613 39.2114C95.1276 38.7338 94.96 38.1589 94.96 37.4854ZM95.5194 37.4957C95.5194 38.1101 95.6542 38.5876 95.9262 38.9266C96.1971 39.2658 96.5274 39.4353 96.9156 39.4353C97.312 39.4353 97.6461 39.2636 97.9155 38.922C98.1842 38.5793 98.3189 38.0752 98.3189 37.4109C98.3189 36.9822 98.2495 36.599 98.1111 36.261C98.004 36.0018 97.8437 35.7952 97.6284 35.6397C97.4146 35.4838 97.1797 35.406 96.9249 35.406C96.517 35.406 96.1797 35.5769 95.916 35.9171C95.6509 36.2574 95.5194 36.7838 95.5194 37.4957ZM104.769 39.9153V34.9265H107.729V35.5153H105.309V37.0427H107.575V37.6282H105.309V39.3264H107.824V39.9153H104.769ZM113.762 39.9153V34.9265H114.304V36.9753H116.433V34.9265H116.974V39.9153H116.433V37.5641H114.304V39.9153H113.762ZM123.083 39.9153V34.9265H123.625V36.9753H125.754V34.9265H126.296V39.9153H125.754V37.5641H123.625V39.9153H123.083ZM132.254 37.4854C132.254 36.6349 132.442 35.9809 132.816 35.5233C133.192 35.0667 133.658 34.8381 134.217 34.8381C134.577 34.8381 134.906 34.94 135.204 35.1448C135.502 35.3478 135.738 35.6453 135.911 36.0345C136.084 36.4236 136.171 36.8872 136.171 37.4239C136.171 38.1635 136.004 38.7665 135.668 39.2309C135.297 39.7444 134.812 40 134.213 40C133.609 40 133.123 39.7374 132.756 39.2114C132.422 38.7338 132.254 38.1589 132.254 37.4854ZM132.814 37.4957C132.814 38.1101 132.948 38.5876 133.221 38.9266C133.491 39.2658 133.822 39.4353 134.21 39.4353C134.606 39.4353 134.94 39.2636 135.21 38.922C135.479 38.5793 135.613 38.0752 135.613 37.4109C135.613 36.9822 135.544 36.599 135.405 36.261C135.298 36.0018 135.138 35.7952 134.923 35.6397C134.709 35.4838 134.474 35.406 134.219 35.406C133.811 35.406 133.474 35.5769 133.21 35.9171C132.945 36.2574 132.814 36.7838 132.814 37.4957ZM142.059 34.9265H142.55V38.8768L144.73 34.9265H145.274V39.9153H144.783V35.9739L142.601 39.9153H142.059V34.9265ZM144.229 33.7079H144.573C144.544 34.0006 144.456 34.22 144.308 34.3675C144.16 34.5151 143.973 34.5895 143.745 34.5895C143.518 34.5895 143.331 34.5151 143.185 34.3675C143.038 34.22 142.951 34.0006 142.921 33.7079H143.265C143.317 34.0146 143.473 34.1668 143.732 34.1668C143.878 34.1668 143.989 34.1306 144.07 34.0588C144.149 33.9853 144.202 33.8694 144.229 33.7079ZM156.111 39.9153V34.9265H156.925L157.896 38.4587L158.089 39.1974C158.137 39.014 158.211 38.7468 158.308 38.3972L159.29 34.9265H160.018V39.9153H159.497V35.7394L158.305 39.9153H157.817L156.631 35.6686V39.9153H156.111ZM166.097 39.9153V34.9265H169.057V35.5153H166.638V37.0427H168.904V37.6282H166.638V39.3264H169.152V39.9153H166.097ZM175.117 34.9265H177.775V35.5153H175.658V37.053H176.636C177 37.053 177.287 37.0949 177.498 37.1796C177.709 37.2634 177.88 37.4215 178.01 37.6525C178.139 37.8838 178.204 38.1543 178.204 38.4656C178.204 38.7585 178.143 39.0233 178.022 39.2612C177.902 39.5005 177.746 39.669 177.553 39.7677C177.36 39.8664 177.082 39.9153 176.718 39.9153H175.117V34.9265ZM175.658 39.3543H176.742C177.021 39.3543 177.238 39.2868 177.391 39.1546C177.545 39.022 177.621 38.7976 177.621 38.483C177.621 38.2692 177.577 38.0951 177.49 37.9579C177.402 37.822 177.285 37.7326 177.139 37.6884C176.992 37.6431 176.741 37.6212 176.384 37.6212H175.658V39.3543ZM184.051 39.9153V34.9265H187.011V35.5153H184.592V37.0427H186.857V37.6282H184.592V39.3264H187.106V39.9153H184.051ZM193.344 34.9265H195.909V39.9153H195.363V35.5153H193.886V38.0845C193.886 38.5946 193.865 38.9731 193.825 39.2194C193.786 39.4656 193.701 39.6574 193.571 39.7942C193.439 39.9316 193.279 40 193.088 40C192.964 40 192.818 39.9721 192.652 39.9153L192.744 39.3334C192.832 39.3785 192.909 39.4018 192.972 39.4018C193.093 39.4018 193.185 39.3473 193.249 39.2379C193.311 39.129 193.344 38.8628 193.344 38.4387V34.9265ZM202.001 34.9265H202.492V38.8768L204.672 34.9265H205.216V39.9153H204.725V35.9739L202.543 39.9153H202.001V34.9265Z" fill="white"/>
<path fill-rule="evenodd" clip-rule="evenodd" d="M203.572 4.5181V24.1924H193.312C192.813 22.8613 191.526 21.9189 190.018 21.9189C188.508 21.9189 187.222 22.8613 186.719 24.1924H176.46V4.5181H186.781C187.323 5.7657 188.563 6.63943 190.018 6.63943C191.468 6.63943 192.713 5.7657 193.256 4.5181H203.572ZM187.302 20.8602V7.817L186.831 7.83109C185.997 7.89464 185.054 8.15523 183.999 8.62444C182.734 9.20942 181.791 10.1974 181.167 11.59C180.841 12.3273 180.68 13.2401 180.68 14.3455C180.68 16.2895 181.254 17.8184 182.399 18.9433C183.234 19.7517 184.297 20.3124 185.598 20.6324C185.843 20.6872 186.068 20.7295 186.272 20.7608C186.479 20.7935 186.664 20.8122 186.831 20.8222L187.302 20.8602ZM192.452 7.817V20.8602C193.145 20.8602 193.944 20.7272 194.857 20.4543C196.501 19.9756 197.734 19.0068 198.567 17.5391C199.035 16.7216 199.268 15.6569 199.268 14.3455C199.268 12.4018 198.682 10.8679 197.511 9.74443C196.656 8.9527 195.565 8.3813 194.228 8.04195C193.711 7.92692 193.287 7.85526 192.963 7.83109L192.452 7.817ZM172.33 24.1924H167.854C167.869 24.0274 167.882 23.8555 167.882 23.6836C167.882 20.9406 165.652 18.7117 162.906 18.7117C160.156 18.7117 157.922 20.9406 157.922 23.6836C157.922 23.8555 157.934 24.0274 157.95 24.1924H153.562V4.5181H172.33V24.1924ZM162.906 6.95001C165.652 6.95001 167.882 9.18325 167.882 11.926C167.882 14.6722 165.652 16.8999 162.906 16.8999C160.156 16.8999 157.922 14.6722 157.922 11.926C157.922 9.18325 160.156 6.95001 162.906 6.95001ZM149.443 4.53293V11.9095C148.335 12.2603 147.527 13.2952 147.527 14.5212C147.527 15.7448 148.335 16.7779 149.443 17.1266V24.1924H144.535V18.835H144.53C144.53 16.8901 142.951 15.3131 141.006 15.3131C139.061 15.3131 137.481 16.8901 137.481 18.835V24.1924H132.506V4.53293H137.481V9.99443C137.481 11.9321 139.061 13.5107 141.006 13.5107C142.951 13.5107 144.53 11.9321 144.53 9.99443H144.535V4.53293H149.443ZM113.333 4.53293H117.91V18.6004C117.91 20.1056 119.138 21.3298 120.646 21.3298C122.16 21.3298 123.386 20.1056 123.386 18.6004H123.395V4.53293H128.389V24.1924H102.833V4.53293H107.847V18.6004C107.847 20.1056 109.076 21.3298 110.587 21.3298C112.097 21.3298 113.326 20.1056 113.326 18.6004H113.333V4.53293Z" fill="#373334"/>
<path fill-rule="evenodd" clip-rule="evenodd" d="M190.072 0C191.509 0 192.674 1.16449 192.674 2.60015C192.674 4.03569 191.509 5.20017 190.072 5.20017C188.635 5.20017 187.469 4.03569 187.469 2.60015C187.469 1.16449 188.635 0 190.072 0Z" fill="#D74339"/>
<path fill-rule="evenodd" clip-rule="evenodd" d="M190.072 23.5101C191.509 23.5101 192.674 24.6746 192.674 26.1102C192.674 27.5462 191.509 28.7103 190.072 28.7103C188.635 28.7103 187.469 27.5462 187.469 26.1102C187.469 24.6746 188.635 23.5101 190.072 23.5101Z" fill="#D74339"/>
</svg>
