<svg width="50" height="51" viewBox="0 0 50 51" fill="none" xmlns="http://www.w3.org/2000/svg">
<path d="M47.1563 21.6555C46.3867 21.0881 45.4172 20.3794 45.2998 19.9163C45.3491 19.0199 45.6051 18.1472 46.0476 17.3662C46.7258 15.8096 47.4258 14.1965 46.6476 12.8551C45.8694 11.5138 44.0999 11.2964 42.3978 11.1159C41.5156 11.11 40.6464 10.9025 39.8566 10.5094C39.4628 9.71675 39.2561 8.84434 39.2522 7.95928C39.061 6.25705 38.8631 4.49612 37.5131 3.7091C36.1632 2.92208 34.548 3.61127 32.9917 4.29821C32.2099 4.74059 31.3366 4.99647 30.4397 5.0461C29.9701 4.92004 29.2637 3.95907 28.7006 3.18948C27.7137 1.859 26.6028 0.350281 24.9986 0.350281C23.3943 0.350281 22.2835 1.859 21.3031 3.18948C20.7336 3.96121 20.027 4.92871 19.564 5.04824C18.6679 4.99423 17.7955 4.73865 17.012 4.30035C15.4469 3.61117 13.8339 2.92422 12.497 3.69819C11.1602 4.47217 10.9363 6.24614 10.7449 7.95918C10.7387 8.84118 10.5321 9.71023 10.1406 10.5006C9.3523 10.8882 8.48649 11.0918 7.60813 11.0963C5.90391 11.2875 4.14089 11.4854 3.35618 12.8355C2.57147 14.1855 3.2607 15.7988 3.94759 17.3575C4.39155 18.1411 4.64752 19.017 4.69541 19.9163C4.56936 20.3859 3.60848 21.0946 2.83895 21.6555C1.50858 22.6338 0 23.7469 0 25.3513C0 26.9558 1.50858 28.0689 2.84119 29.0472C3.61072 29.6146 4.58027 30.3233 4.69765 30.7864C4.64833 31.6828 4.39237 32.5555 3.94983 33.3365C3.2716 34.8931 2.57167 36.5062 3.34986 37.8476C4.12805 39.1889 5.89759 39.4063 7.59968 39.5868C8.4819 39.5927 9.35108 39.8002 10.1409 40.1933C10.5346 40.9859 10.7414 41.8584 10.7452 42.7434C10.9365 44.4457 11.1344 46.2066 12.4843 46.9936C13.8342 47.7806 15.4364 47.0719 16.995 46.3936C17.7846 45.9561 18.663 45.7034 19.5644 45.6545C20.034 45.7805 20.7404 46.7415 21.3035 47.5111C22.2838 48.8416 23.3947 50.3503 24.999 50.3503C26.6032 50.3503 27.714 48.8416 28.6945 47.5111C29.264 46.7393 29.9705 45.7719 30.4336 45.6523C31.3302 45.7031 32.2033 45.9589 32.9856 46.4002C34.542 47.0785 36.155 47.7742 37.494 47.0024C38.833 46.2306 39.0547 44.4544 39.2461 42.75C39.2523 41.868 39.459 40.999 39.8505 40.2086C40.6402 39.8179 41.5084 39.6119 42.3894 39.6064C44.0937 39.4152 45.8567 39.2173 46.6414 37.8672C47.4261 36.5172 46.7175 34.9149 46.0414 33.3562C45.5989 32.5686 45.3459 31.6888 45.3023 30.7865C45.4284 30.3169 46.3893 29.6082 47.1588 29.0473C48.4892 28.0668 50 26.9537 50 25.3515C50 23.7492 48.4888 22.6338 47.1563 21.6555Z" fill="#FFC107"/>
<path d="M18.4772 30.7879C18.1352 30.7879 17.813 30.6268 17.6077 30.3531L13.0428 24.2659V29.7009C13.0428 30.3012 12.5561 30.7879 11.9558 30.7879C11.3556 30.7879 10.8689 30.3012 10.8689 29.7009V21.0049C10.8689 20.4046 11.3556 19.9179 11.9558 19.9179C12.2979 19.9179 12.6201 20.079 12.8253 20.3527L17.3903 26.4399V21.0049C17.3903 20.4046 17.877 19.9179 18.4772 19.9179C19.0775 19.9179 19.5642 20.4046 19.5642 21.0049V29.7009C19.5639 30.1685 19.2644 30.5836 18.8207 30.7313C18.7101 30.7688 18.5941 30.7879 18.4772 30.7879Z" fill="#FAFAFA"/>
<path d="M27.1725 30.7866H22.8249C22.2246 30.7866 21.7379 30.2999 21.7379 29.6996V21.0037C21.7379 20.4033 22.2246 19.9166 22.8249 19.9166H27.1725C27.7728 19.9166 28.2594 20.4033 28.2594 21.0037C28.2594 21.604 27.7728 22.0907 27.1725 22.0907H23.9118V28.6127H27.1725C27.7728 28.6127 28.2594 29.0994 28.2594 29.6997C28.2594 30.3 27.7728 30.7866 27.1725 30.7866Z" fill="#FAFAFA"/>
<path d="M27.1725 26.4383H22.8249C22.2246 26.4383 21.7379 25.9516 21.7379 25.3513C21.7379 24.7509 22.2246 24.2642 22.8249 24.2642H27.1725C27.7728 24.2642 28.2594 24.7509 28.2594 25.3513C28.2594 25.9516 27.7728 26.4383 27.1725 26.4383Z" fill="#FAFAFA"/>
<path d="M38.0414 30.7863C37.573 30.7869 37.1568 30.4873 37.0089 30.0428L35.8676 26.6144L34.7264 30.0428C34.5875 30.5119 34.1404 30.8206 33.6525 30.7842C33.1697 30.7658 32.757 30.4311 32.6395 29.9624L30.4658 21.2665C30.3205 20.6836 30.6753 20.0932 31.2581 19.9479C31.841 19.8026 32.4313 20.1574 32.5766 20.7403L33.8439 25.8144L34.8373 22.8339C35.0956 22.2641 35.7668 22.0117 36.3365 22.27C36.5865 22.3834 36.7869 22.5838 36.9003 22.8339L37.8937 25.8144L39.1609 20.7403C39.3063 20.1574 39.8964 19.8026 40.4794 19.9479C41.0622 20.0932 41.417 20.6835 41.2717 21.2665L39.098 29.9624C38.9805 30.4311 38.5677 30.7658 38.085 30.7842L38.0414 30.7863Z" fill="#FAFAFA"/>
</svg>
