<svg width="26" height="26" viewBox="0 0 26 26" fill="none" xmlns="http://www.w3.org/2000/svg">
<path d="M19.9 22.5H6.2C4.8 22.5 3.60001 21.3 3.60001 19.9V6.1C3.60001 4.7 4.8 3.5 6.2 3.5H19.9C21.3 3.5 22.5 4.7 22.5 6.1V19.8C22.5 21.3 21.3 22.5 19.9 22.5ZM6.2 4.7C5.4 4.7 4.80001 5.3 4.80001 6.1V19.8C4.80001 20.6 5.4 21.2 6.2 21.2H19.9C20.7 21.2 21.3 20.6 21.3 19.8V6.1C21.3 5.3 20.7 4.7 19.9 4.7H6.2Z" fill="black"/>
<path d="M13.1 9.40001C15.1 9.40001 16.7 11 16.7 13C16.7 15 15.1 16.6 13.1 16.6C11.1 16.6 9.50002 15 9.50002 13C9.50002 11 11.1 9.40001 13.1 9.40001ZM13.1 8.20001C10.5 8.20001 8.30002 10.3 8.30002 13C8.30002 15.6 10.4 17.8 13.1 17.8C15.8 17.8 17.9 15.7 17.9 13C17.8 10.4 15.7 8.20001 13.1 8.20001Z" fill="black"/>
<path d="M18.2 7.30001C18.5 7.30001 18.7 7.50001 18.7 7.80001C18.7 8.10001 18.5 8.30001 18.2 8.30001C17.9 8.30001 17.7 8.10001 17.7 7.80001C17.7 7.50001 17.9 7.30001 18.2 7.30001ZM18.2 6.10001C17.3 6.10001 16.5 6.90001 16.5 7.80001C16.5 8.70001 17.3 9.50001 18.2 9.50001C19.1 9.50001 19.9 8.70001 19.9 7.80001C19.9 6.90001 19.2 6.10001 18.2 6.10001Z" fill="black"/>
</svg>
