<svg width="26" height="26" viewBox="0 0 26 26" fill="none" xmlns="http://www.w3.org/2000/svg">
<path d="M19.8 7.59999C20.2 7.59999 20.6 7.99999 20.6 8.39999V17.6C20.6 18 20.2 18.4 19.8 18.4H6.1C5.7 18.4 5.3 18 5.3 17.6V8.39999C5.3 7.99999 5.7 7.59999 6.1 7.59999H19.8ZM19.8 6.39999H6.1C5 6.39999 4.1 7.29999 4.1 8.39999V17.6C4.1 18.7 5 19.6 6.1 19.6H19.8C20.9 19.6 21.8 18.7 21.8 17.6V8.39999C21.8 7.19999 20.9 6.39999 19.8 6.39999Z" fill="black"/>
<path d="M13 16.1L4.9 7.99999C4.7 7.79999 4.7 7.39999 4.9 7.19999C5.1 6.99999 5.5 6.99999 5.7 7.19999L12.9 14.4L20.1 7.19999C20.3 6.99999 20.7 6.99999 20.9 7.19999C21.1 7.39999 21.1 7.79999 20.9 7.99999L13 16.1Z" fill="black"/>
</svg>
