<svg width="26" height="26" viewBox="0 0 26 26" fill="none" xmlns="http://www.w3.org/2000/svg">
<path d="M12.3 17.3L9.6 20C9.1 20.5 8.5 20.8 7.8 20.8C6.4 20.8 5.2 19.6 5.2 18.2C5.2 17.5 5.5 16.9 6 16.4L10.8 11.6C11.8 10.6 13.5 10.6 14.4 11.6L15.2 10.8C13.8 9.4 11.4 9.4 10 10.8L5.2 15.6C4.5 16.3 4.1 17.2 4.1 18.2C4.1 20.2 5.8 21.9 7.8 21.9C8.8 21.9 9.7 21.5 10.4 20.8L13.8 17.4C13.6 17.4 13.5 17.4 13.3 17.4C13 17.4 12.7 17.4 12.3 17.3Z" fill="black"/>
<path d="M18.2 4.10001C17.2 4.10001 16.3 4.50001 15.6 5.20001L12.2 8.60001C12.4 8.60001 12.5 8.60001 12.7 8.60001C13.1 8.60001 13.4 8.60001 13.7 8.70001L16.4 6.00001C16.9 5.50001 17.5 5.20001 18.2 5.20001C19.6 5.20001 20.8 6.40001 20.8 7.80001C20.8 8.50001 20.5 9.10001 20 9.60001L15.2 14.4C14.2 15.4 12.5 15.4 11.6 14.4L10.8 15.2C11.5 15.9 12.4 16.3 13.4 16.3C14.4 16.3 15.3 15.9 16 15.2L20.8 10.4C21.5 9.70001 21.9 8.80001 21.9 7.80001C21.8 5.80001 20.2 4.10001 18.2 4.10001Z" fill="black"/>
</svg>
