<svg width="26" height="26" viewBox="0 0 26 26" fill="none" xmlns="http://www.w3.org/2000/svg">
<path d="M20.2 15.5C19.1 15.5 18.1 15.3 17.1 15C16.6 14.8 16 15 15.7 15.3L13.7 16.8C11.4 15.6 10 14.2 8.8 11.9L10.2 10C10.6 9.6 10.7 9.1 10.5 8.6C10.2 7.6 10 6.5 10 5.5C10.1 4.6 9.4 4 8.6 4H5.4C4.6 4 4 4.6 4 5.4C4 14.3 11.3 21.6 20.2 21.6C21 21.6 21.6 21 21.6 20.2V17C21.6 16.2 21 15.5 20.2 15.5ZM20.6 20.2C20.6 20.4 20.4 20.6 20.2 20.6C11.8 20.6 5 13.8 5 5.4C5 5.2 5.2 5 5.4 5H8.6C8.8 5 9 5.2 9 5.4C9 6.6 9.2 7.7 9.5 8.8C9.6 9 9.5 9.1 9.3 9.3L7.8 11.6C7.7 11.7 7.7 11.9 7.8 12.1C9.2 14.8 10.8 16.5 13.5 17.9C13.7 18 13.9 18 14 17.9L16.3 16.2C16.4 16.1 16.6 16 16.7 16.1C17.8 16.5 19 16.7 20.1 16.7C20.3 16.7 20.5 16.9 20.5 17.1V20.2H20.6Z" fill="black"/>
</svg>
