<svg width="26" height="26" fill="none" xmlns="http://www.w3.org/2000/svg"><path d="M12.3 17.3L9.6 20c-.5.5-1.1.8-1.8.8-1.4 0-2.6-1.2-2.6-2.6 0-.7.3-1.3.8-1.8l4.8-4.8c1-1 2.7-1 3.6 0l.8-.8c-1.4-1.4-3.8-1.4-5.2 0l-4.8 4.8c-.7.7-1.1 1.6-1.1 2.6 0 2 1.7 3.7 3.7 3.7 1 0 1.9-.4 2.6-1.1l3.4-3.4h-.5c-.3 0-.6 0-1-.1z" fill="#000"/><path d="M18.2 4.1c-1 0-1.9.4-2.6 1.1l-3.4 3.4h.5c.4 0 .7 0 1 .1L16.4 6c.5-.5 1.1-.8 1.8-.8 1.4 0 2.6 1.2 2.6 2.6 0 .7-.3 1.3-.8 1.8l-4.8 4.8c-1 1-2.7 1-3.6 0l-.8.8c.7.7 1.6 1.1 2.6 1.1s1.9-.4 2.6-1.1l4.8-4.8c.7-.7 1.1-1.6 1.1-2.6-.1-2-1.7-3.7-3.7-3.7z" fill="#000"/></svg>