<svg width="26" height="26" fill="none" xmlns="http://www.w3.org/2000/svg"><path d="M19.9 22.5H6.2c-1.4 0-2.6-1.2-2.6-2.6V6.1c0-1.4 1.2-2.6 2.6-2.6h13.7c1.4 0 2.6 1.2 2.6 2.6v13.7c0 1.5-1.2 2.7-2.6 2.7zM6.2 4.7c-.8 0-1.4.6-1.4 1.4v13.7c0 .8.6 1.4 1.4 1.4h13.7c.8 0 1.4-.6 1.4-1.4V6.1c0-.8-.6-1.4-1.4-1.4H6.2z" fill="#000"/><path d="M13.1 9.4c2 0 3.6 1.6 3.6 3.6s-1.6 3.6-3.6 3.6S9.5 15 9.5 13s1.6-3.6 3.6-3.6zm0-1.2c-2.6 0-4.8 2.1-4.8 4.8 0 2.6 2.1 4.8 4.8 4.8 2.7 0 4.8-2.1 4.8-4.8-.1-2.6-2.2-4.8-4.8-4.8zm5.1-.9c.3 0 .5.2.5.5s-.2.5-.5.5-.5-.2-.5-.5.2-.5.5-.5zm0-1.2c-.9 0-1.7.8-1.7 1.7 0 .9.8 1.7 1.7 1.7.9 0 1.7-.8 1.7-1.7 0-.9-.7-1.7-1.7-1.7z" fill="#000"/></svg>