<svg width="26" height="26" viewBox="0 0 26 26" fill="none" xmlns="http://www.w3.org/2000/svg">
<path d="M19.9 22.5H6.19997C4.79997 22.5 3.59998 21.3 3.59998 19.9V6.1C3.59998 4.7 4.79997 3.5 6.19997 3.5H19.9C21.3 3.5 22.5 4.7 22.5 6.1V19.8C22.5 21.3 21.3 22.5 19.9 22.5ZM6.19997 4.7C5.39997 4.7 4.79998 5.3 4.79998 6.1V19.8C4.79998 20.6 5.39997 21.2 6.19997 21.2H19.9C20.7 21.2 21.3 20.6 21.3 19.8V6.1C21.3 5.3 20.7 4.7 19.9 4.7H6.19997Z" fill="#FAF6F2"/>
<path d="M13.0999 9.39995C15.0999 9.39995 16.6999 11 16.6999 13C16.6999 15 15.0999 16.5999 13.0999 16.5999C11.0999 16.5999 9.49992 15 9.49992 13C9.49992 11 11.0999 9.39995 13.0999 9.39995ZM13.0999 8.19995C10.4999 8.19995 8.29993 10.3 8.29993 13C8.29993 15.6 10.3999 17.7999 13.0999 17.7999C15.7999 17.7999 17.8999 15.7 17.8999 13C17.7999 10.4 15.6999 8.19995 13.0999 8.19995Z" fill="#FAF6F2"/>
<path d="M18.2 7.3001C18.5 7.3001 18.7 7.5001 18.7 7.8001C18.7 8.1001 18.5 8.3001 18.2 8.3001C17.9 8.3001 17.7 8.1001 17.7 7.8001C17.7 7.5001 17.9 7.3001 18.2 7.3001ZM18.2 6.1001C17.3 6.1001 16.5 6.9001 16.5 7.8001C16.5 8.7001 17.3 9.5001 18.2 9.5001C19.1 9.5001 19.9 8.7001 19.9 7.8001C19.9 6.9001 19.2 6.1001 18.2 6.1001Z" fill="#FAF6F2"/>
</svg>
