<svg width="26" height="26" viewBox="0 0 26 26" fill="none" xmlns="http://www.w3.org/2000/svg">
<path d="M19.8 22.4H6.1C4.7 22.4 3.5 21.2 3.5 19.8V6.1C3.5 4.7 4.7 3.5 6.1 3.5H19.8C21.2 3.5 22.4 4.7 22.4 6.1V19.8C22.4 21.3 21.3 22.4 19.8 22.4ZM6.1 4.7C5.3 4.7 4.7 5.3 4.7 6.1V19.8C4.7 20.6 5.3 21.2 6.1 21.2H19.8C20.6 21.2 21.2 20.6 21.2 19.8V6.1C21.2 5.3 20.6 4.7 19.8 4.7H6.1Z" fill="#FAF6F2"/>
<path d="M17.1 13.7C16.9 13.4 17 13.3 17.1 13.1C17.1 13.1 18.8 10.8 19 10C19.1 9.7 19 9.5 18.6 9.5H17.2C16.9 9.5 16.7 9.7 16.6 9.9C16.6 9.9 15.9 11.6 14.9 12.7C14.6 13 14.4 13.1 14.3 13.1C14.2 13.1 14.1 13 14.1 12.7V10C14.1 9.7 14 9.5 13.7 9.5H11.5C11.3 9.5 11.2 9.7 11.2 9.8C11.2 10.1 11.7 10.2 11.7 11.1V13.1C11.7 13.5 11.6 13.6 11.4 13.6C10.9 13.6 9.79998 11.9 9.09998 10C8.99998 9.6 8.89998 9.5 8.49998 9.5H7.09998C6.69998 9.5 6.59998 9.7 6.59998 9.9C6.59998 10.3 7.09998 12 8.79998 14.4C9.89998 16 11.5 16.9 13 16.9C13.9 16.9 14 16.7 14 16.4C14 14.9 13.9 14.7 14.4 14.7C14.6 14.7 15 14.8 15.8 15.6C16.7 16.5 16.9 16.9 17.4 16.9H18.8C19.2 16.9 19.4 16.7 19.3 16.3C18.9 15.4 17.2 13.8 17.1 13.7Z" fill="#FAF6F2"/>
</svg>
